<svg width="14" height="14" viewBox="0 0 14 14" fill="none" xmlns="http://www.w3.org/2000/svg">
<path d="M12.8783 13.5408C12.7407 13.4384 12.5871 13.352 12.4687 13.2304C11.3103 12.0816 10.1615 10.9264 9.00953 9.77438C8.97433 9.73918 8.95193 9.69118 8.92313 9.64638C7.59193 10.6672 6.13593 11.0352 4.53273 10.6896C3.19832 10.4016 2.13273 9.67198 1.36792 8.54558C-0.0880753 6.41118 0.254325 3.66238 2.03032 1.93758C4.01433 0.0143763 6.96473 0.011176 8.94873 1.65918C11.0223 3.38078 11.5279 6.53918 9.67193 8.89118C9.70393 8.92638 9.73593 8.96158 9.77113 8.99678C10.9231 10.1488 12.0783 11.3008 13.2271 12.4592C13.3487 12.584 13.4383 12.7376 13.5439 12.8784C13.5439 12.9552 13.5439 13.032 13.5439 13.1088C13.4703 13.3264 13.3263 13.4704 13.1087 13.544C13.0319 13.5408 12.9551 13.5408 12.8783 13.5408ZM9.72953 5.63358C9.71353 3.37438 7.87993 1.54398 5.63673 1.55358C3.37753 1.55998 1.54392 3.39998 1.55352 5.64318C1.56313 7.89918 3.37753 9.72958 5.64313 9.72318C7.93433 9.71678 9.71353 7.87998 9.72953 5.63358Z" fill="white"/>
</svg>
